<svg width="14" height="15" viewBox="0 0 14 15" fill="none" xmlns="http://www.w3.org/2000/svg">
<g clip-path="url(#clip0_15_395)">
<path d="M6.90889 13.068C3.76488 13.068 1.21631 10.5194 1.21631 7.37538C1.21631 4.23137 3.76488 1.6828 6.90889 1.6828C10.0529 1.6828 12.6015 4.23137 12.6015 7.37538C12.6015 10.5194 10.0529 13.068 6.90889 13.068ZM6.90889 11.9295C8.11671 11.9295 9.27505 11.4497 10.1291 10.5956C10.9832 9.74154 11.463 8.5832 11.463 7.37538C11.463 6.16757 10.9832 5.00923 10.1291 4.15517C9.27505 3.30112 8.11671 2.82132 6.90889 2.82132C5.70108 2.82132 4.54273 3.30112 3.68868 4.15517C2.83463 5.00923 2.35483 6.16757 2.35483 7.37538C2.35483 8.5832 2.83463 9.74154 3.68868 10.5956C4.54273 11.4497 5.70108 11.9295 6.90889 11.9295ZM7.47815 7.37538H9.75519V8.5139H6.33963V4.52909H7.47815V7.37538Z" fill="#444E72"/>
</g>
<defs>
<clipPath id="clip0_15_395">
<rect width="13.6622" height="13.6622" fill="white" transform="translate(0.0777588 0.544312)"/>
</clipPath>
</defs>
</svg>
