<svg width="23" height="23" viewBox="0 0 23 23" fill="none" xmlns="http://www.w3.org/2000/svg">
<g filter="url(#filter0_ii_1_3386)">
<g clip-path="url(#clip0_1_3386)">
<g filter="url(#filter1_dii_1_3386)">
<path d="M11.8671 22.7006L5.96678 16.8002C4.79982 15.6332 4.00511 14.1464 3.68316 12.5278C3.3612 10.9092 3.52645 9.23142 4.15801 7.70671C4.78957 6.18199 5.85908 4.8788 7.23129 3.96192C8.6035 3.04505 10.2168 2.55566 11.8671 2.55566C13.5175 2.55566 15.1307 3.04505 16.5029 3.96192C17.8751 4.8788 18.9447 6.18199 19.5762 7.70671C20.2078 9.23142 20.373 10.9092 20.0511 12.5278C19.7291 14.1464 18.9344 15.6332 17.7675 16.8002L11.8671 22.7006ZM16.4565 15.4892C17.364 14.5816 17.9821 13.4252 18.2325 12.1662C18.4828 10.9073 18.3543 9.60243 17.863 8.41658C17.3718 7.23072 16.54 6.21716 15.4727 5.50406C14.4054 4.79096 13.1507 4.41035 11.8671 4.41035C10.5835 4.41035 9.32879 4.79096 8.26153 5.50406C7.19427 6.21716 6.36243 7.23072 5.8712 8.41658C5.37997 9.60243 5.25141 10.9073 5.50177 12.1662C5.75214 13.4252 6.37018 14.5816 7.27776 15.4892L11.8671 20.0786L16.4565 15.4892ZM11.8671 12.7542C11.3753 12.7542 10.9037 12.5588 10.5559 12.2111C10.2082 11.8633 10.0128 11.3917 10.0128 10.8999C10.0128 10.4081 10.2082 9.93645 10.5559 9.5887C10.9037 9.24095 11.3753 9.04559 11.8671 9.04559C12.3589 9.04559 12.8305 9.24095 13.1783 9.5887C13.526 9.93645 13.7214 10.4081 13.7214 10.8999C13.7214 11.3917 13.526 11.8633 13.1783 12.2111C12.8305 12.5588 12.3589 12.7542 11.8671 12.7542Z" fill="white"/>
</g>
</g>
</g>
<defs>
<filter id="filter0_ii_1_3386" x="-15.9471" y="-13.2057" width="46.3572" height="46.3572" filterUnits="userSpaceOnUse" color-interpolation-filters="sRGB">
<feFlood flood-opacity="0" result="BackgroundImageFix"/>
<feBlend mode="normal" in="SourceGraphic" in2="BackgroundImageFix" result="shape"/>
<feColorMatrix in="SourceAlpha" type="matrix" values="0 0 0 0 0 0 0 0 0 0 0 0 0 0 0 0 0 0 127 0" result="hardAlpha"/>
<feOffset dx="7.41714" dy="-13.9071"/>
<feGaussianBlur stdDeviation="13.9071"/>
<feComposite in2="hardAlpha" operator="arithmetic" k2="-1" k3="1"/>
<feColorMatrix type="matrix" values="0 0 0 0 0 0 0 0 0 0 0 0 0 0 0 0 0 0 0.2 0"/>
<feBlend mode="normal" in2="shape" result="effect1_innerShadow_1_3386"/>
<feColorMatrix in="SourceAlpha" type="matrix" values="0 0 0 0 0 0 0 0 0 0 0 0 0 0 0 0 0 0 127 0" result="hardAlpha"/>
<feOffset dx="-16.6886" dy="10.1986"/>
<feGaussianBlur stdDeviation="13.9071"/>
<feComposite in2="hardAlpha" operator="arithmetic" k2="-1" k3="1"/>
<feColorMatrix type="matrix" values="0 0 0 0 1 0 0 0 0 1 0 0 0 0 1 0 0 0 1 0"/>
<feBlend mode="normal" in2="effect1_innerShadow_1_3386" result="effect2_innerShadow_1_3386"/>
</filter>
<filter id="filter1_dii_1_3386" x="-54.4772" y="-43.4443" width="124.689" height="128.145" filterUnits="userSpaceOnUse" color-interpolation-filters="sRGB">
<feFlood flood-opacity="0" result="BackgroundImageFix"/>
<feColorMatrix in="SourceAlpha" type="matrix" values="0 0 0 0 0 0 0 0 0 0 0 0 0 0 0 0 0 0 127 0" result="hardAlpha"/>
<feMorphology radius="4" operator="dilate" in="SourceAlpha" result="effect1_dropShadow_1_3386"/>
<feOffset dx="-4" dy="8"/>
<feGaussianBlur stdDeviation="25"/>
<feColorMatrix type="matrix" values="0 0 0 0 0 0 0 0 0 0 0 0 0 0 0 0 0 0 0.1 0"/>
<feBlend mode="normal" in2="BackgroundImageFix" result="effect1_dropShadow_1_3386"/>
<feBlend mode="normal" in="SourceGraphic" in2="effect1_dropShadow_1_3386" result="shape"/>
<feColorMatrix in="SourceAlpha" type="matrix" values="0 0 0 0 0 0 0 0 0 0 0 0 0 0 0 0 0 0 127 0" result="hardAlpha"/>
<feOffset dx="-6" dy="4"/>
<feGaussianBlur stdDeviation="2"/>
<feComposite in2="hardAlpha" operator="arithmetic" k2="-1" k3="1"/>
<feColorMatrix type="matrix" values="0 0 0 0 1 0 0 0 0 1 0 0 0 0 1 0 0 0 0.25 0"/>
<feBlend mode="normal" in2="shape" result="effect2_innerShadow_1_3386"/>
<feColorMatrix in="SourceAlpha" type="matrix" values="0 0 0 0 0 0 0 0 0 0 0 0 0 0 0 0 0 0 127 0" result="hardAlpha"/>
<feOffset dx="2" dy="-3"/>
<feGaussianBlur stdDeviation="3"/>
<feComposite in2="hardAlpha" operator="arithmetic" k2="-1" k3="1"/>
<feColorMatrix type="matrix" values="0 0 0 0 0 0 0 0 0 0 0 0 0 0 0 0 0 0 0.25 0"/>
<feBlend mode="normal" in2="effect2_innerShadow_1_3386" result="effect3_innerShadow_1_3386"/>
</filter>
<clipPath id="clip0_1_3386">
<rect width="22.2514" height="22.2514" fill="white" transform="translate(0.741455 0.701416)"/>
</clipPath>
</defs>
</svg>
