<svg width="20" height="19" viewBox="0 0 20 19" fill="none" xmlns="http://www.w3.org/2000/svg">
<path d="M8.59489 14.0473H2.56846V12.193H8.59489C9.1871 12.1932 9.76796 12.3555 10.2745 12.6622C10.7811 12.969 11.1941 13.4085 11.4687 13.9332C11.7433 14.4579 11.8692 15.0477 11.8325 15.6388C11.7959 16.2298 11.5982 16.7996 11.2608 17.2864C10.9235 17.7731 10.4594 18.1583 9.91884 18.4001C9.37826 18.6419 8.7818 18.7312 8.1941 18.6583C7.6064 18.5854 7.04986 18.353 6.58478 17.9864C6.11971 17.6197 5.76383 17.1328 5.55571 16.5784L7.29225 15.9266C7.38142 16.1642 7.53392 16.3729 7.73323 16.5301C7.93253 16.6872 8.17104 16.7868 8.42291 16.8181C8.67478 16.8494 8.93041 16.8111 9.1621 16.7075C9.39379 16.6039 9.59271 16.4388 9.7373 16.2302C9.88188 16.0217 9.96663 15.7775 9.98235 15.5241C9.99807 15.2708 9.94417 15.018 9.82649 14.7932C9.70881 14.5683 9.53183 14.3799 9.31473 14.2484C9.09763 14.1169 8.84869 14.0474 8.59489 14.0473ZM3.4956 8.48442H16.012C16.6042 8.48463 17.1851 8.6469 17.6917 8.95365C18.1983 9.2604 18.6112 9.69992 18.8859 10.2246C19.1605 10.7493 19.2863 11.3391 19.2497 11.9302C19.213 12.5213 19.0153 13.0911 18.678 13.5778C18.3407 14.0645 17.8766 14.4497 17.336 14.6915C16.7954 14.9334 16.1989 15.0227 15.6112 14.9497C15.0235 14.8768 14.467 14.6444 14.0019 14.2778C13.5369 13.9112 13.181 13.4242 12.9729 12.8698L14.7094 12.218C14.7986 12.4557 14.9511 12.6643 15.1504 12.8215C15.3497 12.9786 15.5882 13.0783 15.8401 13.1095C16.0919 13.1408 16.3476 13.1026 16.5792 12.9989C16.8109 12.8953 17.0099 12.7303 17.1544 12.5217C17.299 12.3131 17.3838 12.0689 17.3995 11.8156C17.4152 11.5623 17.3613 11.3095 17.2436 11.0846C17.1259 10.8597 16.949 10.6713 16.7319 10.5399C16.5148 10.4084 16.2658 10.3388 16.012 10.3387H3.4956C2.75792 10.3387 2.05045 10.0457 1.52883 9.52405C1.00721 9.00243 0.714172 8.29496 0.714172 7.55728C0.714172 6.8196 1.00721 6.11213 1.52883 5.59051C2.05045 5.06889 2.75792 4.77585 3.4956 4.77585H11.3763C11.6301 4.77575 11.8791 4.70619 12.0962 4.57471C12.3133 4.44323 12.4902 4.25485 12.6079 4.02997C12.7256 3.8051 12.7795 3.55231 12.7638 3.29899C12.7481 3.04567 12.6633 2.80148 12.5187 2.59288C12.3741 2.38429 12.1752 2.21924 11.9435 2.11561C11.7118 2.01199 11.4562 1.97375 11.2043 2.00503C10.9525 2.03631 10.714 2.13592 10.5147 2.29306C10.3154 2.45021 10.1629 2.65891 10.0737 2.89653L8.33714 2.24568C8.6046 1.53438 9.11314 0.939465 9.77416 0.564593C10.4352 0.189721 11.2068 0.0586561 11.9545 0.194236C12.7022 0.329815 13.3787 0.723444 13.866 1.30654C14.3533 1.88963 14.6206 2.62522 14.6213 3.38514C14.6213 4.24577 14.2794 5.07114 13.6709 5.6797C13.0623 6.28825 12.2369 6.63014 11.3763 6.63014H3.4956C3.24971 6.63014 3.01389 6.72782 2.84001 6.90169C2.66614 7.07556 2.56846 7.31139 2.56846 7.55728C2.56846 7.80317 2.66614 8.039 2.84001 8.21287C3.01389 8.38674 3.24971 8.48442 3.4956 8.48442Z" fill="white"/>
</svg>
