<svg width="220" height="182" viewBox="0 0 220 182" fill="none" xmlns="http://www.w3.org/2000/svg">
<circle cx="87.3956" cy="45.7417" r="23.1786" fill="url(#paint0_radial_1_2465)"/>
<g opacity="0.67" filter="url(#filter0_f_1_2465)">
<path d="M136.501 48.8593C152.025 62.869 188.454 77.7246 174.444 93.248C160.434 108.771 80.3581 153.115 47.0168 135.975C31.4934 121.965 60.9245 76.8558 74.9341 61.3325C88.9438 45.8092 120.978 34.8497 136.501 48.8593Z" fill="url(#paint1_linear_1_2465)" fill-opacity="0.3"/>
</g>
<g filter="url(#filter1_ii_1_2465)">
<path fill-rule="evenodd" clip-rule="evenodd" d="M112.479 109.359H81.9985C66.8271 109.359 54.5283 97.0606 54.5283 81.8892C54.5283 66.7179 66.8271 54.4191 81.9985 54.4191H83.5037C88.8292 54.4191 93.8191 55.8558 98.107 58.3627C103.681 41.8492 119.298 29.9594 137.692 29.9594H139.762C161.688 29.9594 179.462 47.7336 179.462 69.6593C179.462 91.585 161.688 109.359 139.762 109.359L112.479 109.359Z" fill="white"/>
</g>
<defs>
<filter id="filter0_f_1_2465" x="0.89283" y="0.689949" width="218.417" height="180.882" filterUnits="userSpaceOnUse" color-interpolation-filters="sRGB">
<feFlood flood-opacity="0" result="BackgroundImageFix"/>
<feBlend mode="normal" in="SourceGraphic" in2="BackgroundImageFix" result="shape"/>
<feGaussianBlur stdDeviation="20.8607" result="effect1_foregroundBlur_1_2465"/>
</filter>
<filter id="filter1_ii_1_2465" x="37.8397" y="16.0522" width="149.039" height="103.506" filterUnits="userSpaceOnUse" color-interpolation-filters="sRGB">
<feFlood flood-opacity="0" result="BackgroundImageFix"/>
<feBlend mode="normal" in="SourceGraphic" in2="BackgroundImageFix" result="shape"/>
<feColorMatrix in="SourceAlpha" type="matrix" values="0 0 0 0 0 0 0 0 0 0 0 0 0 0 0 0 0 0 127 0" result="hardAlpha"/>
<feOffset dx="7.41714" dy="-13.9071"/>
<feGaussianBlur stdDeviation="13.9071"/>
<feComposite in2="hardAlpha" operator="arithmetic" k2="-1" k3="1"/>
<feColorMatrix type="matrix" values="0 0 0 0 0 0 0 0 0 0 0 0 0 0 0 0 0 0 0.2 0"/>
<feBlend mode="normal" in2="shape" result="effect1_innerShadow_1_2465"/>
<feColorMatrix in="SourceAlpha" type="matrix" values="0 0 0 0 0 0 0 0 0 0 0 0 0 0 0 0 0 0 127 0" result="hardAlpha"/>
<feOffset dx="-16.6886" dy="10.1986"/>
<feGaussianBlur stdDeviation="13.9071"/>
<feComposite in2="hardAlpha" operator="arithmetic" k2="-1" k3="1"/>
<feColorMatrix type="matrix" values="0 0 0 0 1 0 0 0 0 1 0 0 0 0 1 0 0 0 1 0"/>
<feBlend mode="normal" in2="effect1_innerShadow_1_2465" result="effect2_innerShadow_1_2465"/>
</filter>
<radialGradient id="paint0_radial_1_2465" cx="0" cy="0" r="1" gradientUnits="userSpaceOnUse" gradientTransform="translate(96.6179 33.1073) rotate(132.136) scale(48.2948 48.2948)">
<stop stop-color="#FFF72C"/>
<stop offset="1" stop-color="#DF7800"/>
</radialGradient>
<linearGradient id="paint1_linear_1_2465" x1="63.5027" y1="142.839" x2="153.671" y2="41.6461" gradientUnits="userSpaceOnUse">
<stop stop-color="#254659"/>
<stop offset="1" stop-color="#023553"/>
</linearGradient>
</defs>
</svg>
